<?xml version="1.0" encoding="UTF-8"?>
<svg xmlns="http://www.w3.org/2000/svg" viewBox="0 0 24 24" role="img" aria-label="User permission icon">
    <style>
        .user, .key {
            fill: currentColor;
            transition: all 0.3s ease;
            transform-origin: center;
        }
        .key {
            transform: translate(6px, 0);
        }
        svg:hover .user {
            transform: scale(1.1) translateX(-2px);
        }
        svg:hover .key {
            transform: translate(8px, 0) rotate(45deg);
        }
        .keyhole {
            fill: none;
            stroke: currentColor;
            stroke-width: 1;
            stroke-dasharray: 12;
            stroke-dashoffset: 12;
        }
        svg:hover .keyhole {
            animation: draw 0.5s ease-out forwards;
        }
        @keyframes draw {
            to {
                stroke-dashoffset: 0;
            }
        }
    </style>
    <title>User Permission</title>
    <g class="user">
        <circle cx="8" cy="8" r="4"/>
        <path d="M14 19v-2a6 6 0 00-6-6H6a6 6 0 00-6 6v2h14z"/>
    </g>
    <g class="key">
        <path d="M21 7c0-2.2-1.8-4-4-4s-4 1.8-4 4c0 1.9 1.3 3.4 3 3.9V15l1 1 1-1v-1l1 1 1-1v-3.1c1.7-.4 3-2 3-3.9zM17 9c-1.1 0-2-.9-2-2s.9-2 2-2 2 .9 2 2-.9 2-2 2z"/>
    </g>
    <path class="keyhole" d="M17 6.5a0.5 0.5 0 100 1 0.5 0.5 0 000-1"/>
</svg>
